<?xml version="1.0" encoding="utf-8"?>
<!-- Generator: Adobe Illustrator 27.8.0, SVG Export Plug-In . SVG Version: 6.00 Build 0)  -->
<svg version="1.1" id="Layer_1" xmlns="http://www.w3.org/2000/svg" xmlns:xlink="http://www.w3.org/1999/xlink" x="0px" y="0px"
	 viewBox="0 0 841.9 595.3" style="enable-background:new 0 0 841.9 595.3;" xml:space="preserve">
<style type="text/css">
	.st0{fill:#BE2B31;}
</style>
<g>
	<g>
		<path d="M315.8,316.8c3.2-0.1,8.3-0.4,11.1-0.4c15.5,0,20.8,8.1,20.8,16.9c0,9.8-6.1,14.6-18.2,14.6h-13.8V316.8z M305.3,381
			c0,8-2,10.4-12.4,10.4H290v2.4h46.2c20.3,0,27.3-14,27.3-24c0-9.8-6.9-17.6-18.8-21.1v-0.3c8.5-1.5,14.4-8.2,14.4-15.4
			c0-6.1-2.5-10.4-7.7-14c-4.5-3.3-14.3-4.9-25.4-4.9c-2.4,0-12,0.1-18.9,0.4c-3.7,0.1-12.4,0.6-15.9,0.8v2.4h4.4
			c8.8,0,9.7,3.8,9.7,11V381z M315.8,350.4h13.6c14.8,0,22.2,10,22.2,19.7c0,9.8-4.8,20.2-21.5,20.2c-10.6,0-14.4-3.4-14.4-13V350.4
			z"/>
		<path d="M491.4,317.6v-2.4h-30.7v2.4c7.1,0.4,9.5,2.3,9.5,9.1v53.8c0,8.2-1.6,10.3-8.8,10.8c-9.6-0.5-13.7-4.3-20.6-11.2l-10-10
			c-5.9-5.9-9.7-9.5-14.4-13.1c10.4-3,16.8-11,16.8-20.5c0-12.9-10.5-22.5-33.8-22.5c-8.2,0-10.7,0.1-15.9,0.4
			c-5.2,0.2-12.9,0.8-15.9,0.8v2.4h2.8c7.3,0,9.5,2.3,9.5,10.1v53.2c0,8.5-2.7,10.5-10.1,10.5h-2.1v2.4h35.7v-2.4h-2.9
			c-7.1,0-10.1-1.9-10.1-9.5v-21.3c2,0.1,3.7,0.3,6.4,0.3c3.4,0,5.4-0.1,8.6-0.3c3,2,7.5,5.7,13,11.2l8.3,8.3
			c10.9,10.9,15.6,14.4,36.1,13.6h28.6v-2.4c-8.7,0-10.7-2.5-10.7-10v-53.5C480.7,319.3,483.4,317.6,491.4,317.6z M398.1,358.4
			c-2.9,0-4.8,0.1-7.8-0.3v-41.4c2.3-0.3,3.9-0.3,6.3-0.3c19.5,0,24.8,9.1,24.8,20.8C421.3,352.4,412.1,358.4,398.1,358.4z"/>
		<path d="M500,374.5c2.7,11.2,11.5,17.8,21.3,17.8c8.5,0,17.4-4.9,17.4-14.9c0-18.2-40.5-23.7-40.5-45.8c0-10.5,9.6-18.3,22.5-18.3
			c10.6,0,12.8,3.2,17.2,3.2c1,0,1.5-0.3,2.3-1.3h2l2.1,16h-2.1c-3.5-9.1-11.6-14.9-20.3-14.9c-8.3,0-14.1,4.8-14.1,11.9
			c0,17.9,40.5,22.7,40.5,46c0,12.4-11,21.6-25.8,21.6c-6.9,0-15.8-3.4-17.5-3.4c-1.1,0-2,0.6-2.5,1.4h-2.1l-2.6-19.2H500z"/>
		<path d="M596.8,382.1c0,6.8,2.3,9.2,10,9.2h4.7v2.4h-39.8v-2.4h4.7c7.7,0,10-2.4,10-9.2v-62.4h-22c-5,0-7.3,2.9-9.2,14h-2.3
			l2-20.5h2.4c0.1,0.8,0.6,1.3,1.4,1.5c0.8,0.3,1.6,0.4,2.5,0.4H622c1.8,0,3.7-0.4,3.9-1.9h2.4l2,20.5H628c-1.9-11.1-4.2-14-9.2-14
			h-22V382.1z"/>
		<path d="M710.9,356.5c0,17.9-9.8,36.1-30.4,36.1c-20.3,0-36.4-16.7-36.4-40.3c0-15.2,8.8-35.9,31.1-35.9
			C696,316.4,710.9,333,710.9,356.5z M722.7,352.3c0-22.7-20.5-39-44.3-39c-26.9,0-46.2,17.8-46.2,42.9c0,23.6,20.8,39.5,45.6,39.5
			C702.3,395.7,722.7,377.8,722.7,352.3z"/>
		<path d="M781.4,393.7H725v-2.4h4.2c5.8,0,8-1.9,8-8.3V327c0-6.7-2-9.5-10-9.5h-1.8v-2.4h37.2v2.4h-4.7c-8.2,0-10.4,0.9-10.4,8.7
			v58.2c0,3.4,1.4,4.7,5.1,4.7h18.6c7.4,0,9.7-2.9,17.7-13.9h2.3L781.4,393.7z"/>
		<g>
			<path class="st0" d="M191.5,279.1c-0.1-7.3-2.6-22.4-20.2-30.9c17.9,5.7,26.4,20.8,27.3,32c18.7,3.7,35.4,12.6,62.4,3.2l0.1-0.1
				c0,0-35.5,0.3-50.4-10.4c7.7,0.3,16.5-1.4,19.4-5.8c3.1-4.6,3.4-9.4,11-9.7c4.3-0.1,18.8,0.9,20.3-20.3
				c-4.6,7.8-9.7,11.1-17.2,9.1c-4.8-1.2-13.7-4.9-20,2.6c-5.2,6.2-10.8,9.5-19.7,8.5c3.6-4.8,56.8-74,56.8-74s-68.2,54.8-72,57.9
				c-0.7-10,2.3-13.7,6.3-18.1c3.3-3.6,9-8.5,4.4-18.7c-3.7-8.3-3.2-13.3,6.8-21.3c-8,0.6-20.1,5.9-18.7,20.6
				c0.9,8.8-5.4,9.6-7.7,10.9c-5.9,3.3-6.7,12.8-6.9,20.3c-0.7-2.4-9.3-39.6-12.4-51.6c0,0,0,100,0,100h0.2
				C173,278.8,182.7,278.1,191.5,279.1z"/>
		</g>
		<g>
			<path class="st0" d="M261,293.7c-45,14.8-60.4-16.5-99.8,0c0,0,0,100.1,0,100.1c42.9-15.9,44.5,13.5,99.8,0
				C261,393.7,261,293.7,261,293.7z M179.3,344.9c-0.2,0.1-0.4,0.3-0.4,0.5c-0.4,0.9-1.7,5.4-2,6.6c-0.3,1.3-0.7,1.4-1.4,1.7
				c-0.6,0.2-0.7,1.6-0.1,1.7c1.6,0.5,1.3,1.6,1.2,1.8c0,0.3-0.5,3.2-2.6,5.2c-1.1-2.1-1.3-4.1-1.5-4.6c-0.2-0.5-0.3-1.1-0.2-1.6
				c0-0.5-0.1-2.6-0.2-3.1c0-0.5,0.2-1,0.4-1.4c0.4-0.7,3.2-6,4.5-9.3c0.5-1.2,3.3-2.4,3.9-2.1c0.8,0.3,1.7,1.4,5.7,3.1
				c0.1,1.1,0.3,3.3,0.9,4.2c-0.9,0.4-2.4,0.5-2.4,0.5s-3.3-2.7-4-3.4c-0.1-0.1-0.4-0.3-0.6-0.3
				C180.1,344.6,179.7,344.7,179.3,344.9z M217.3,377.4c-0.7-0.6-1.8,0.4-1.2,1.3c0.7,1.1,0.6,1.7,0.6,1.7s-2.2,2.6-5.2,3
				c-0.3-0.3,0.8-4.3,1.9-6.5c0.9-1.8,1.3-2.1,2.5-2.7c1.2-0.6,6.2-3.1,7.7-4.4c1.6-1.3,2.2-3.2,2.2-3.2s1.5,1.9,3.4,3.8
				c-0.4,0.7-9.9,6.7-10.4,7.1C218.5,377.9,217.8,377.9,217.3,377.4z M239.1,372.3c-0.4,0.7-4.6,7.9-5.7,10.5
				c-0.6,1.4-1.2,1.1-1.6,1.2c-0.4,0.1-1.5,0.3-1.4,1.6c0.1,0.9-0.1,1.3-0.1,1.3s-6.7,0-7.3,0c0.3-1.1,1-2.4,3.9-3.9
				c0.9-0.5,2-1.5,2.8-2.7c0.4-0.6,2.9-5.1,3.4-6.2c0.4-0.8,0.2-2.1-0.2-2.9c-0.4-0.7-1.1-2-2.1-2.7c-3.2-2.6-5.2-4.6-7.9-9.9
				c-0.4-0.9,0.1-1.9-4.6-0.6c-11.3,3-19.4-1.1-19.8-1.4c0.4-2.1,1.2-4,0-4.9c-0.7,1.4-1.4,2.4-2.6,3.7c-0.4,0.4-0.9,0.3-1.7,0.2
				c-0.9-0.1-6.5-0.8-7.5-1c-0.4-0.1-2,0.4-1.1,2.2c0.2,0.3,1.4,2.6,2.8,4.6c0.7,1.1,0,1.8,0.1,2.6c0.2,0.8,0.6,1.1,0.9,1
				c0.3-0.1,1.5-1.5,2.4-0.5c0.9,1,1.5,3.9,1.7,6.8c-0.8,0.1-1.9-0.3-2.9-1.1c-0.9-0.7-1.8-2.1-2.8-2.9c-1-0.8-1.5-0.7-2.2-1.4
				c-0.6-0.6-1.3-1-1.5-2.8c-0.2-1.8-2.8-7.7-3.3-8.4c-0.6-0.9,0.5-2.8,1-3.4c0.4-0.5,1.3-0.6,2.4-0.8c1.6-0.4,4.2-1.5,5.2-1.8
				c-3.5-6.7,0.7-10.7,1.2-11c1.2-5.7,3.4-8.9,4.3-10.1c2.1-0.4,4.1-0.7,5.1-4.9c0.6-2.3-0.5-4.9-1.3-5.6c0.4,2.2,0.3,4.6-0.9,6.3
				c-1.7,2.5-4.5,2.2-5,2.2s-1.1-0.1-1.6,0.4c-0.4,0.4-1.7,1.6-2.5,2.1c-0.7,0.4-0.6,0.7-0.6,1.3c-0.1,0.6-0.1,1-0.8,1.1
				c-0.7,0.1-1.7-0.4-2.3-0.4c-1,0-0.4-0.6,0.2-1.4c0.6-0.8,0.7-0.3,1.2-0.4c0.7-0.1,1-0.4,1.6-1.1c0.8-1.2-1.1-1.4-1.7-0.8
				c-0.6,0.6-1.4,1.7-1.9,2.3c-0.5,0.6-1,0.8-1.2,0.1c-0.2-0.5-0.4-1.5-0.4-2c-1.6-0.4-0.2-2.2-0.2-2.2l4.7-5.7c0,0-1-0.7-0.3-1.9
				c0.4-0.7,3.2-4,5.2-5.4c-0.4-1.1-0.9-2.2-2.1-3.4c1.8,0.3,3.2,0.3,6,3.2c0.7,0.8,1.5,0.5,1.2-0.2c-0.3-0.8-0.8-1.4-1.7-2.6
				c8.7-2.3,12.9,5.4,13.5,6.2c-1.6-0.1-2.9,0.1-3.7,0.4c-0.7,0.2-0.6,0.5,0.4,0.6c2.9,0.3,3.3,0.5,4.2,0.7c1.2,1.4,1.8,4.7,1.8,4.9
				c-1.2,0.1-2.8-0.2-4.4,0c-1.3,0.2-0.8,0.8-0.3,0.8c1.9,0.2,3.8,0.8,5.2,1.4c0.5,2.7,0.4,4.5,0.4,4.5s-3.4-0.4-4.3-0.3
				c-0.9,0.1-0.4,0.8,0.4,1.1c0.8,0.3,2.5,0.9,3.6,1.9c0,0.8-0.3,2.7-0.7,3.7c-0.3,0.9-0.1,1.8,1.5,2.1c4.2,0.8,7.8,1.4,14.3,1.3
				c11.4-0.2,15.2,12.9,10.1,19.3c-2.4,3-2.5,4.7-2.3,5.8c0.5,2.7,1.9,5,4.4,6.5C240.7,369.9,239.4,371.7,239.1,372.3z M251.7,324
				c-3.4,2.9,0.2,8.4-3,12.7c-1.7,2.9-6.6,5.9-11.3,3c2.8-1,5.5-3.3,4-7.7c-2-5.7-4.7-5.8-7.8-10.6c-2.4-3.7-3.7-13.3,5.2-16.4
				c-7.3,4.6-3,12.9-0.3,15.3c-4.7-10.8,2.6-15.9,7-15.9c2.4,0,5.4,0.2,7.1,3.4c2.5,4.5-1.2,7.9-3.1,8c3.1-1.5,2.9-4.3,1.9-5.7
				c-1.9-2.7-7-1.4-8,1.8c-1.4,4.9,2.5,7.7,3.8,10.9c2-2.8,6.8-3.1,8.9-0.1C254.2,322.7,252.6,323.2,251.7,324z"/>
			<path class="st0" d="M176.5,357.3C176.5,357.3,176.5,357.3,176.5,357.3C176.5,357.2,176.5,357.2,176.5,357.3z"/>
		</g>
		<path d="M361.2,225.1v1.8c-6.3,0.1-8.5,2.6-8.5,8.6v25.3c0,11.6-7.4,24.1-27.7,24.1c-17.9,0-27.1-10.2-27.1-23.6v-27.3
			c0-6-1.7-6.9-8.1-7v-1.8h24.1v1.8h-0.8c-5.1,0-7.4,1.4-7.4,6.8v26c0,12.6,7.4,20.2,21.3,20.2c10.6,0,21.3-4.4,21.3-20.3v-21.8
			c0-9-1.4-10.6-9.2-11v-1.8H361.2z"/>
		<path d="M373.5,275.2c0,5.1,1.2,6.4,6.3,6.4v1.8H361v-1.8c4.1,0,6.3-2.2,6.3-5.9V256c0-3.5-0.4-4.1-2.8-4.6l-3.2-0.7v-1.5
			l10.8-3.9h1.5v7.3c6.3-3.9,11.5-7.4,16.1-7.4c6.4,0,10,4.7,10,14c0,12.5-0.7,14.9-0.7,18.5c-0.1,2.5,1.4,3.7,5.2,3.7h2.1v1.8
			h-20.1v-1.8c2.7-0.1,4.3-0.7,5.3-1.8c1.8-1.8,2-8.6,2-21.1c0-7.5-3.7-9.8-7.4-9.8c-3,0-7.6,2.6-12.5,6V275.2z"/>
		<path d="M424.1,276.2c0,3.3,1.8,5.3,6.7,5.3v1.8h-20.8v-1.8c5.7,0,7.8-1.9,7.8-6.8v-18.8c0-3.7-0.5-4.1-2.9-4.6l-4.4-0.8V249
			l12.2-4.2h1.4V276.2z M420.3,223.7c2.2,0,4.1,1.6,4.1,3.6c0,2-1.9,3.6-4.1,3.6c-2.2,0-4-1.6-4-3.6
			C416.3,225.3,418,223.7,420.3,223.7z"/>
		<path d="M452.2,284.2l-13.6-31.1c-1.4-3.3-2.6-4.4-4.1-4.7l-2.9-0.5v-1.7h19.1v1.7c-5.7,0.2-7.5,0.9-5.2,5.3l9.9,23.3L465,255
			c1.7-3.8,0.8-6.6-6-7v-1.7h16.3v1.7c-3.6,0.7-5.6,2.7-7.4,6.8L455,284.2H452.2z"/>
		<path d="M483.1,257.1c2.2-8.7,6.8-10.1,9.9-10.1c4.5,0,8.2,4,9.3,10.1H483.1z M510.2,259.6v-2.2c-3.1-3.1-2.8-12.2-15.5-12.2
			c-11.4,0-18.1,10.1-18.1,20c0,10.9,7.1,19.2,16.3,19.2c6.8,0,12.7-4.7,16.7-9.6l-1-1.1c-3.6,4.2-7.2,6.1-11.9,6.1
			c-7.4,0-14.2-6.6-14.2-16.3c0-1.2,0.2-2.5,0.4-3.9H510.2z"/>
		<path d="M528.3,276.5c0,3.8,1.4,5.1,6.1,5.1h3.6v1.8h-22.2v-1.8c4.8-0.1,6.3-2.1,6.3-7v-21.6l-6.3-2.2v-1.6l10.7-3.7h1.9v9.9h0.2
			c4.7-7.7,5.8-9.5,8.9-9.5c1.1,0,1.4,0.1,3.2,0.8c0.9,0.4,2.6,0.7,4.9,1.4l-2.2,5.6c-1.4-0.2-3.2-0.7-5-1.5c-1-0.5-2.2-0.9-3.3-0.9
			c-1.7,0-2.7,1.1-3.7,2.4c-1.2,1.7-2.2,3.3-3,4.7V276.5z"/>
		<path d="M551.9,273.9c1.1,5.6,4.7,8.8,8.9,8.8c3.7,0,6.6-2.8,6.6-6.2c0-2-0.5-3.2-3-5.7c-6.6-6.6-14-7.3-14-15.1
			c0-6.2,4.9-10.5,12-10.5c2.5,0,5.2,0.6,7.5,1.5l0.2,8.5h-1.6c-0.7-4.8-3.7-7.8-7.5-7.8c-3.1,0-5.7,2.2-5.7,5.2
			c0,8.2,17.4,9.6,17.4,21.1c0,6.1-5.1,10.7-11.6,10.7c-1.8,0-3.1-0.3-4.1-0.7c-1-0.3-1.8-0.6-2.5-0.6c-0.6,0-1.1,0.4-1.6,1.1h-1.4
			l-1-10.5H551.9z"/>
		<path d="M592.4,276.2c0,3.3,1.8,5.3,6.7,5.3v1.8h-20.8v-1.8c5.7,0,7.8-1.9,7.8-6.8v-18.8c0-3.7-0.5-4.1-2.9-4.6l-4.4-0.8V249
			l12.2-4.2h1.4V276.2z M588.6,223.7c2.3,0,4.1,1.6,4.1,3.6c0,2-1.9,3.6-4.1,3.6c-2.2,0-4-1.6-4-3.6
			C584.6,225.3,586.3,223.7,588.6,223.7z"/>
		<path d="M625.9,246.3l-1.5,4.1h-11.9v21.8c0,5.9,4.2,7.9,6.2,7.9c2.1,0,3.9-1.6,5.7-4.7l1.5,1.4c-2.2,4.9-5.9,7.7-10.2,7.7
			c-5.5,0-9.5-4.6-9.5-10.9v-23.2h-4.3v-1.5c3.7-1.8,6.8-6.1,9-11.9h1.6v9.3H625.9z"/>
		<path d="M662.9,256.7c2.8-7.1,1-8.5-4.5-8.7v-1.7h15.5v1.7c-3.8,0.5-6,3.1-7.8,7.5l-15.9,39.7c-2.8,6.9-5,10-8.2,10
			c-2.2,0-3.8-1.4-3.8-3.3c0-3.8,5.4-2.9,7.8-5.2c1-1,2.4-3.5,3.2-5.3l2.8-7l-14.5-30.8c-1.8-3.8-3.5-5.4-7.4-5.5v-1.7h18.8v1.7
			c-5.7,0.1-6.4,1.8-4.5,5.7l10.6,22.8L662.9,256.7z"/>
		<path d="M702,261.9c0-8.1,5.7-14.4,11.9-14.4c7.9,0,14.4,9.1,14.4,19.8c0,9.4-6.3,15-11.8,15C708.4,282.2,702,273.2,702,261.9z
			 M695,265.1c0,11,8.9,19.4,20.5,19.4c11.1,0,19.8-8.5,19.8-19.6c0-11.1-8.7-19.7-20.1-19.7C705.4,245.2,695,252.2,695,265.1z"/>
		<path d="M762.5,250.4h-10.1V276c0,4.3,1.7,5.5,6.9,5.5h3.6v1.8h-23.1v-1.8c5.4,0,6.4-1.2,6.4-6.5v-24.7h-6.9v-1.6
			c2.6-0.6,4.9-1.4,6.9-2.5c0-7.8,1.7-13.7,7.2-19.2c4.6-4.6,9-6.6,13.3-6.6c5.2,0,9.6,3,9.6,4.4c0,0.7-1.8,4.5-2.5,4.5
			c-1.3,0-4.8-4.6-11-4.6c-6.7,0-10.4,5.3-10.4,14.4v7.1h9.5L762.5,250.4z"/>
		<path class="st0" d="M130.4,183.4v10.8h-0.5l-11.7,0h-0.5v-10.8h-11.6l0,10.8H106l-11.4,0l0-10.8h-0.3H83.1l0,10.8h-0.4H71.4
			v-10.8H71H51c0,0,0,100.4,0,100c42.8,14.9,59.6-15.8,99.8,0c0-1.6,0-100,0-100H130.4z M128.3,217c-4.1,8.1-4.4,16.3-3.7,20.5
			c-8.6-2.2-11.5,0-11.5,0S113.3,228.3,128.3,217z M86.3,207c3.4-1.4,3.3-0.6,3.1,0.3c-0.2,1-0.8,2.6,1.1,2.2
			c5.2-1.2,9.8-4.4,10.2-4.7v6.3c-0.8,0.4-6.2,2.8-10.9,3.1c-4.3,0.3-2.4-4.6-2.4-4.6c-0.4,0.2-5.9,3.1-10.5,2.8
			c-5.5-0.3-5.8-3.4-5.2-4.1C71.7,208.8,72.4,212.8,86.3,207z M68.8,272c18.3,5.1,31.1-8.3,43.6-10c-13.7-0.2-21.1,5.5-25.6,6
			c-2.3-1.7-4.9-5.9-5.8-10.4c-0.7-3.8-4.5-4.4-4.5-4.4l-0.6-2.8c0,0,10.8,1.6,12.7,1.8c2.5,4,7.2,5,9.6,5c0,0,0.1-6.8,0-7.2
			c0.5-0.8,2.5-1.4,2.5-1.4l0.1,8.5c5.9,0,10.4-3.8,10.3-7.3c-0.1-4.1-4.6-7.6-11.8-7.4c-7.2,0.1-9.8,3.7-10.5,4.9
			c-8.5-8.5-4.6-18.9-4.6-18.9s-7.4,5-0.7,17.6c-7-1.9-12.7,1.8-12.7,4.7c0,2.7,2.1,4.8,6.3,4.9c-15.1,3-18.4-5.6-11.2-10.2
			c3.4,0.6,3.4,0.6,5.7,1.1c-7.3-7.3-3.8-16.3,2.1-20.2c8.5-1.5,12.7-2.2,12.7-2.2s4.1-5.9,7.7-8.1c5.2-0.5,23.4-3.1,23.4-3.1
			s-17,15.5-0.7,32c6.7,0,14.7,0,14.7,0s-0.3,2.5-0.8,4.9c-1.4,0.1-2.2,0.2-2.8,0.2c-0.2,7.5-4.7,12.5-4.7,12.5s8.5,1.1,14.2,4.5
			C100.9,259.9,97.9,282,68.8,272z"/>
		<path class="st0" d="M189.2,319.4c0,0-0.5-0.2,0.4-1c0.1-0.1,0.3,0.1,0.8,0.1c0.7,0,1.1-0.2,1.7-0.9c0.9-1.1-1-1.5-1.6-1
			c-0.7,0.6-1.1,1.2-1.7,1.7C188.9,318.3,187.9,319.1,189.2,319.4z"/>
		<path class="st0" d="M150.8,390.4C119,369.5,94.5,401,51,379.2c0,0,0,14.5,0,14.6c55.3,13.5,56.9-15.9,99.8,0V390.4z"/>
	</g>
	<path class="st0" d="M95.8,371C68.1,371.2,51,354.4,51,354.4c0,0,0,13.1,0,13.1c39.7,27.1,65.6-3.6,99.8,19.5v-3.5
		C142.7,377.1,132.1,370.7,95.8,371z"/>
	<g>
		<path class="st0" d="M121.3,367.1c3.7,0.8,6.9,1.6,9.7,2.4c7.2,2.4,13.9,6,19.9,10.5l0-86.4c-10.5-4.4-19.3-5.4-27.4-4.8v46.4
			l-10.8-10.8l-10.8,10.8v-42c-14,3.8-28.9,7.5-50.8,0.3c0,0.9,0,23.6,0,43.3c0,0,11.4,24.2,42.2,26.5
			C104.9,364.4,114,365.6,121.3,367.1"/>
	</g>
</g>
</svg>
